<svg aria-roledescription="quadrantChart" role="graphics-document document" viewBox="0 0 500 500" style="max-width: 500px; background-color: transparent;" xmlns:xlink="http://www.w3.org/1999/xlink" xmlns="http://www.w3.org/2000/svg" width="100%" id="my-svg"><style>#my-svg{font-family:"trebuchet ms",verdana,arial,sans-serif;font-size:16px;fill:#333;}#my-svg .error-icon{fill:#552222;}#my-svg .error-text{fill:#552222;stroke:#552222;}#my-svg .edge-thickness-normal{stroke-width:2px;}#my-svg .edge-thickness-thick{stroke-width:3.5px;}#my-svg .edge-pattern-solid{stroke-dasharray:0;}#my-svg .edge-pattern-dashed{stroke-dasharray:3;}#my-svg .edge-pattern-dotted{stroke-dasharray:2;}#my-svg .marker{fill:#333333;stroke:#333333;}#my-svg .marker.cross{stroke:#333333;}#my-svg svg{font-family:"trebuchet ms",verdana,arial,sans-serif;font-size:16px;}#my-svg :root{--mermaid-font-family:"trebuchet ms",verdana,arial,sans-serif;}</style><g/><g class="main"><g class="quadrants"><g class="quadrant"><rect fill="#ECECFF" height="232" width="232" y="5" x="263"/><text transform="translate(379, 10) rotate(0)" text-anchor="middle" dominant-baseline="hanging" font-size="16" fill="#131300" y="0" x="0">DORA Elite</text></g><g class="quadrant"><rect fill="#f1f1ff" height="232" width="232" y="5" x="31"/><text transform="translate(147, 10) rotate(0)" text-anchor="middle" dominant-baseline="hanging" font-size="16" fill="#0e0e00" y="0" x="0">DORA Gold-plated</text></g><g class="quadrant"><rect fill="#f6f6ff" height="232" width="232" y="237" x="31"/><text transform="translate(147, 242) rotate(0)" text-anchor="middle" dominant-baseline="hanging" font-size="16" fill="#090900" y="0" x="0">DORA Theatre</text></g><g class="quadrant"><rect fill="#fbfbff" height="232" width="232" y="237" x="263"/><text transform="translate(379, 242) rotate(0)" text-anchor="middle" dominant-baseline="hanging" font-size="16" fill="#040400" y="0" x="0">DORA Speedrun</text></g></g><g class="border"><line style="stroke: rgb(199, 199, 241); stroke-width: 2;" y2="5" x2="496" y1="5" x1="30"/><line style="stroke: rgb(199, 199, 241); stroke-width: 2;" y2="468" x2="495" y1="6" x1="495"/><line style="stroke: rgb(199, 199, 241); stroke-width: 2;" y2="469" x2="496" y1="469" x1="30"/><line style="stroke: rgb(199, 199, 241); stroke-width: 2;" y2="468" x2="31" y1="6" x1="31"/><line style="stroke: rgb(199, 199, 241); stroke-width: 1;" y2="468" x2="263" y1="6" x1="263"/><line style="stroke: rgb(199, 199, 241); stroke-width: 1;" y2="237" x2="494" y1="237" x1="32"/></g><g class="data-points"><g class="data-point"><circle fill="hsl(240, 100%, NaN%)" r="5" cy="121" cx="216.6"/><text transform="translate(216.6, 126) rotate(0)" text-anchor="middle" dominant-baseline="hanging" font-size="12" fill="#131300" y="0" x="0">Form-filling</text></g><g class="data-point"><circle fill="hsl(240, 100%, NaN%)" r="5" cy="283.4" cx="332.6"/><text transform="translate(332.6, 288.4) rotate(0)" text-anchor="middle" dominant-baseline="hanging" font-size="12" fill="#131300" y="0" x="0">Datadog</text></g><g class="data-point"><circle fill="hsl(240, 100%, NaN%)" r="5" cy="260.20000000000005" cx="309.4"/><text transform="translate(309.4, 265.20000000000005) rotate(0)" text-anchor="middle" dominant-baseline="hanging" font-size="12" fill="#131300" y="0" x="0">CircleCI</text></g><g class="data-point"><circle fill="hsl(240, 100%, NaN%)" r="5" cy="190.60000000000002" cx="448.6"/><text transform="translate(448.6, 195.60000000000002) rotate(0)" text-anchor="middle" dominant-baseline="hanging" font-size="12" fill="#131300" y="0" x="0">Shoestring</text></g><g class="data-point"><circle fill="hsl(240, 100%, NaN%)" r="5" cy="97.79999999999998" cx="309.4"/><text transform="translate(309.4, 102.79999999999998) rotate(0)" text-anchor="middle" dominant-baseline="hanging" font-size="12" fill="#131300" y="0" x="0">Prison wall notation</text></g><g class="data-point"><circle fill="hsl(240, 100%, NaN%)" r="5" cy="445.79999999999995" cx="54.2"/><text transform="translate(54.2, 450.79999999999995) rotate(0)" text-anchor="middle" dominant-baseline="hanging" font-size="12" fill="#131300" y="0" x="0">Accelerate</text></g><g class="data-point"><circle fill="hsl(240, 100%, NaN%)" r="5" cy="74.60000000000001" cx="425.4"/><text transform="translate(425.4, 79.60000000000001) rotate(0)" text-anchor="middle" dominant-baseline="hanging" font-size="12" fill="#131300" y="0" x="0">John Lewis</text></g><g class="data-point"><circle fill="hsl(240, 100%, NaN%)" r="5" cy="51.39999999999999" cx="448.6"/><text transform="translate(448.6, 56.39999999999999) rotate(0)" text-anchor="middle" dominant-baseline="hanging" font-size="12" fill="#131300" y="0" x="0">GitHub</text></g></g><g class="labels"><g class="label"><text transform="translate(147, 479) rotate(0)" text-anchor="middle" dominant-baseline="hanging" font-size="16" fill="#131300" y="0" x="0">Infrequent updates</text></g><g class="label"><text transform="translate(379, 479) rotate(0)" text-anchor="middle" dominant-baseline="hanging" font-size="16" fill="#131300" y="0" x="0">Frequent updates</text></g><g class="label"><text transform="translate(5, 353) rotate(-90)" text-anchor="middle" dominant-baseline="hanging" font-size="16" fill="#131300" y="0" x="0">Low fidelity</text></g><g class="label"><text transform="translate(5, 121) rotate(-90)" text-anchor="middle" dominant-baseline="hanging" font-size="16" fill="#131300" y="0" x="0">High fidelity</text></g></g><g class="title"/></g></svg>