<svg aria-roledescription="xychart" role="graphics-document document" viewBox="0 0 700 500" style="max-width: 700px; background-color: transparent;" xmlns:xlink="http://www.w3.org/1999/xlink" xmlns="http://www.w3.org/2000/svg" width="100%" id="my-svg"><style>#my-svg{font-family:"trebuchet ms",verdana,arial,sans-serif;font-size:16px;fill:#333;}#my-svg .error-icon{fill:#552222;}#my-svg .error-text{fill:#552222;stroke:#552222;}#my-svg .edge-thickness-normal{stroke-width:2px;}#my-svg .edge-thickness-thick{stroke-width:3.5px;}#my-svg .edge-pattern-solid{stroke-dasharray:0;}#my-svg .edge-pattern-dashed{stroke-dasharray:3;}#my-svg .edge-pattern-dotted{stroke-dasharray:2;}#my-svg .marker{fill:#333333;stroke:#333333;}#my-svg .marker.cross{stroke:#333333;}#my-svg svg{font-family:"trebuchet ms",verdana,arial,sans-serif;font-size:16px;}#my-svg :root{--mermaid-font-family:"trebuchet ms",verdana,arial,sans-serif;}</style><g/><g class="main"><rect fill="transparent" class="background" height="500" width="700"/><g class="plot"><g class="bar-plot-0"><rect stroke-width="0" stroke="#ECECFF" fill="#ECECFF" height="234.40200000000002" width="49.4" y="232.59799999999998" x="61.08613471984863"/><rect stroke-width="0" stroke="#ECECFF" fill="#ECECFF" height="95.04300000000006" width="49.4" y="371.95699999999994" x="97.84950129985809"/><rect stroke-width="0" stroke="#ECECFF" fill="#ECECFF" height="15.216000000000008" width="49.4" y="451.784" x="134.61286787986757"/><rect stroke-width="0" stroke="#ECECFF" fill="#ECECFF" height="16.117999999999995" width="49.4" y="450.882" x="171.37623445987703"/><rect stroke-width="0" stroke="#ECECFF" fill="#ECECFF" height="12.510000000000048" width="49.4" y="454.48999999999995" x="208.1396010398865"/><rect stroke-width="0" stroke="#ECECFF" fill="#ECECFF" height="14.313999999999965" width="49.4" y="452.68600000000004" x="244.90296761989595"/><rect stroke-width="0" stroke="#ECECFF" fill="#ECECFF" height="12.960999999999956" width="49.4" y="454.03900000000004" x="281.6663341999054"/><rect stroke-width="0" stroke="#ECECFF" fill="#ECECFF" height="12.059000000000026" width="49.4" y="454.941" x="318.42970077991487"/><rect stroke-width="0" stroke="#ECECFF" fill="#ECECFF" height="13.863" width="49.4" y="453.137" x="355.1930673599243"/><rect stroke-width="0" stroke="#ECECFF" fill="#ECECFF" height="26.04000000000002" width="49.4" y="440.96" x="391.9564339399338"/><rect stroke-width="0" stroke="#ECECFF" fill="#ECECFF" height="53.099999999999966" width="49.4" y="413.90000000000003" x="428.71980051994325"/><rect stroke-width="0" stroke="#ECECFF" fill="#ECECFF" height="90.53300000000002" width="49.4" y="376.467" x="465.4831670999527"/><rect stroke-width="0" stroke="#ECECFF" fill="#ECECFF" height="105.416" width="49.4" y="361.584" x="502.24653367996217"/><rect stroke-width="0" stroke="#ECECFF" fill="#ECECFF" height="25.138000000000034" width="49.4" y="441.86199999999997" x="539.0099002599716"/><rect stroke-width="0" stroke="#ECECFF" fill="#ECECFF" height="11.608000000000004" width="49.4" y="455.392" x="575.773266839981"/><rect stroke-width="0" stroke="#ECECFF" fill="#ECECFF" height="83.76799999999997" width="49.4" y="383.232" x="612.5366334199905"/><rect stroke-width="0" stroke="#ECECFF" fill="#ECECFF" height="234.40200000000002" width="49.4" y="232.59799999999998" x="649.3"/></g><g class="line-plot-1"><path stroke-width="2" stroke="#8493A6" fill="none" d="M85.78613471984863,232.59799999999998L122.5495012998581,371.95699999999994L159.31286787986755,451.784L196.076234459877,450.882L232.83960103988647,454.48999999999995L269.60296761989594,452.68600000000004L306.3663341999054,454.03900000000004L343.12970077991486,454.941L379.8930673599243,453.137L416.6564339399338,440.96L453.41980051994324,413.90000000000003L490.1831670999527,376.467L526.9465336799622,361.584L563.7099002599716,441.86199999999997L600.4732668399811,455.392L637.2366334199905,383.232L674,232.59799999999998"/></g></g><g class="bottom-axis"><g class="axis-line"><path stroke-width="2" stroke="#131300" fill="none" d="M 59.78613471984863,468 L 700,468"/></g><g class="label"><text transform="translate(122.5495012998581, 479) rotate(0)" text-anchor="middle" dominant-baseline="text-before-edge" font-size="14" fill="#131300" y="0" x="0">2008</text><text transform="translate(196.076234459877, 479) rotate(0)" text-anchor="middle" dominant-baseline="text-before-edge" font-size="14" fill="#131300" y="0" x="0">2010</text><text transform="translate(269.60296761989594, 479) rotate(0)" text-anchor="middle" dominant-baseline="text-before-edge" font-size="14" fill="#131300" y="0" x="0">2012</text><text transform="translate(343.12970077991486, 479) rotate(0)" text-anchor="middle" dominant-baseline="text-before-edge" font-size="14" fill="#131300" y="0" x="0">2014</text><text transform="translate(416.6564339399338, 479) rotate(0)" text-anchor="middle" dominant-baseline="text-before-edge" font-size="14" fill="#131300" y="0" x="0">2016</text><text transform="translate(490.1831670999527, 479) rotate(0)" text-anchor="middle" dominant-baseline="text-before-edge" font-size="14" fill="#131300" y="0" x="0">2018</text><text transform="translate(563.7099002599716, 479) rotate(0)" text-anchor="middle" dominant-baseline="text-before-edge" font-size="14" fill="#131300" y="0" x="0">2020</text><text transform="translate(637.2366334199905, 479) rotate(0)" text-anchor="middle" dominant-baseline="text-before-edge" font-size="14" fill="#131300" y="0" x="0">2022</text></g><g class="ticks"><path stroke-width="2" stroke="#131300" fill="none" d="M 122.5495012998581,469 L 122.5495012998581,474"/><path stroke-width="2" stroke="#131300" fill="none" d="M 196.076234459877,469 L 196.076234459877,474"/><path stroke-width="2" stroke="#131300" fill="none" d="M 269.60296761989594,469 L 269.60296761989594,474"/><path stroke-width="2" stroke="#131300" fill="none" d="M 343.12970077991486,469 L 343.12970077991486,474"/><path stroke-width="2" stroke="#131300" fill="none" d="M 416.6564339399338,469 L 416.6564339399338,474"/><path stroke-width="2" stroke="#131300" fill="none" d="M 490.1831670999527,469 L 490.1831670999527,474"/><path stroke-width="2" stroke="#131300" fill="none" d="M 563.7099002599716,469 L 563.7099002599716,474"/><path stroke-width="2" stroke="#131300" fill="none" d="M 637.2366334199905,469 L 637.2366334199905,474"/></g></g><g class="left-axis"><g class="axisl-line"><path stroke-width="2" stroke="#131300" fill="none" d="M 58.78613471984863,0 L 58.78613471984863,467"/></g><g class="label"><text transform="translate(47.78613471984863, 8) rotate(0)" text-anchor="end" dominant-baseline="middle" font-size="14" fill="#131300" y="0" x="0">10</text><text transform="translate(47.78613471984863, 53.099999999999994) rotate(0)" text-anchor="end" dominant-baseline="middle" font-size="14" fill="#131300" y="0" x="0">9</text><text transform="translate(47.78613471984863, 98.19999999999999) rotate(0)" text-anchor="end" dominant-baseline="middle" font-size="14" fill="#131300" y="0" x="0">8</text><text transform="translate(47.78613471984863, 143.3) rotate(0)" text-anchor="end" dominant-baseline="middle" font-size="14" fill="#131300" y="0" x="0">7</text><text transform="translate(47.78613471984863, 188.40000000000003) rotate(0)" text-anchor="end" dominant-baseline="middle" font-size="14" fill="#131300" y="0" x="0">6</text><text transform="translate(47.78613471984863, 233.5) rotate(0)" text-anchor="end" dominant-baseline="middle" font-size="14" fill="#131300" y="0" x="0">5</text><text transform="translate(47.78613471984863, 278.59999999999997) rotate(0)" text-anchor="end" dominant-baseline="middle" font-size="14" fill="#131300" y="0" x="0">4</text><text transform="translate(47.78613471984863, 323.69999999999993) rotate(0)" text-anchor="end" dominant-baseline="middle" font-size="14" fill="#131300" y="0" x="0">3</text><text transform="translate(47.78613471984863, 368.80000000000007) rotate(0)" text-anchor="end" dominant-baseline="middle" font-size="14" fill="#131300" y="0" x="0">2</text><text transform="translate(47.78613471984863, 413.90000000000003) rotate(0)" text-anchor="end" dominant-baseline="middle" font-size="14" fill="#131300" y="0" x="0">1</text><text transform="translate(47.78613471984863, 459) rotate(0)" text-anchor="end" dominant-baseline="middle" font-size="14" fill="#131300" y="0" x="0">0</text></g><g class="ticks"><path stroke-width="2" stroke="#131300" fill="none" d="M 57.78613471984863,8 L 52.78613471984863,8"/><path stroke-width="2" stroke="#131300" fill="none" d="M 57.78613471984863,53.099999999999994 L 52.78613471984863,53.099999999999994"/><path stroke-width="2" stroke="#131300" fill="none" d="M 57.78613471984863,98.19999999999999 L 52.78613471984863,98.19999999999999"/><path stroke-width="2" stroke="#131300" fill="none" d="M 57.78613471984863,143.3 L 52.78613471984863,143.3"/><path stroke-width="2" stroke="#131300" fill="none" d="M 57.78613471984863,188.40000000000003 L 52.78613471984863,188.40000000000003"/><path stroke-width="2" stroke="#131300" fill="none" d="M 57.78613471984863,233.5 L 52.78613471984863,233.5"/><path stroke-width="2" stroke="#131300" fill="none" d="M 57.78613471984863,278.59999999999997 L 52.78613471984863,278.59999999999997"/><path stroke-width="2" stroke="#131300" fill="none" d="M 57.78613471984863,323.69999999999993 L 52.78613471984863,323.69999999999993"/><path stroke-width="2" stroke="#131300" fill="none" d="M 57.78613471984863,368.80000000000007 L 52.78613471984863,368.80000000000007"/><path stroke-width="2" stroke="#131300" fill="none" d="M 57.78613471984863,413.90000000000003 L 52.78613471984863,413.90000000000003"/><path stroke-width="2" stroke="#131300" fill="none" d="M 57.78613471984863,459 L 52.78613471984863,459"/></g><g class="title"><text transform="translate(5, 233.5) rotate(270)" text-anchor="middle" dominant-baseline="text-before-edge" font-size="16" fill="#131300" y="0" x="0">Interest rate (%)</text></g></g></g><g class="mermaid-tmp-group"/></svg>